<svg width="669" height="682" viewBox="0 0 669 682" fill="none" xmlns="http://www.w3.org/2000/svg">
<rect width="669" height="682" fill="#DAD0D0"/>
<rect x="0.5" y="23.5" width="106" height="199" fill="#BDAFED" stroke="black"/>
<rect x="0.5" y="230.5" width="126" height="250" fill="#BDAFED" stroke="black"/>
<rect x="115.5" y="36.5" width="120" height="146" fill="#BDAFED" stroke="black"/>
<rect x="244.5" y="36.5" width="120" height="146" fill="#BDAFED" stroke="black"/>
<rect x="534.5" y="0.5" width="134" height="122" fill="#BDAFED" stroke="black"/>
<rect x="373.5" y="36.5" width="152" height="159" fill="#BDAFED"/>
<rect x="373.5" y="36.5" width="152" height="159" stroke="#070101"/>
<rect x="373.5" y="36.5" width="152" height="159" stroke="black" stroke-opacity="0.2"/>
<rect x="168.5" y="280.5" width="122" height="182" fill="#BDAFED" stroke="black"/>
<path d="M525 281.5V411.706L416 472.646V384.5H387.5V281.5H525Z" fill="#BDAFED"/>
<path d="M525 281.5V411.706L416 472.646V384.5H387.5V281.5H525Z" stroke="black"/>
<path d="M525 281.5V411.706L416 472.646V384.5H387.5V281.5H525Z" stroke="black" stroke-opacity="0.2"/>
<path d="M525 281.5V411.706L416 472.646V384.5H387.5V281.5H525Z" stroke="black" stroke-opacity="0.2"/>
<path d="M138 489.5V619.706L28.3691 681H0.5V489.5H138Z" fill="#BDAFED"/>
<path d="M138 489.5V619.706L28.3691 681H0.5V489.5H138Z" stroke="black"/>
<path d="M138 489.5V619.706L28.3691 681H0.5V489.5H138Z" stroke="black" stroke-opacity="0.2"/>
<path d="M138 489.5V619.706L28.3691 681H0.5V489.5H138Z" stroke="black" stroke-opacity="0.2"/>
</svg>
